<svg width="16" height="17" viewBox="0 0 16 17" fill="none" xmlns="http://www.w3.org/2000/svg">
<g id="Group">
<path id="Union" fill-rule="evenodd" clip-rule="evenodd" d="M15.5303 2.03033C15.8232 1.73744 15.8232 1.26256 15.5303 0.96967C15.2374 0.676777 14.7626 0.676777 14.4697 0.96967L8 7.43934L1.53033 0.96967C1.23744 0.676777 0.762563 0.676777 0.46967 0.96967C0.176777 1.26256 0.176777 1.73744 0.46967 2.03033L6.93934 8.5L0.46967 14.9697C0.176777 15.2626 0.176777 15.7374 0.46967 16.0303C0.762563 16.3232 1.23744 16.3232 1.53033 16.0303L8 9.56066L14.4697 16.0303C14.7626 16.3232 15.2374 16.3232 15.5303 16.0303C15.8232 15.7374 15.8232 15.2626 15.5303 14.9697L9.06066 8.5L15.5303 2.03033Z" fill="white"/>
</g>
</svg>
