<svg width="14" height="14" viewBox="0 0 14 14" fill="none" xmlns="http://www.w3.org/2000/svg">
<g id="close_circle">
<path id="Subtract" fill-rule="evenodd" clip-rule="evenodd" d="M7 14C10.866 14 14 10.866 14 7C14 3.13401 10.866 0 7 0C3.13401 0 0 3.13401 0 7C0 10.866 3.13401 14 7 14ZM4.13956 9.85906C3.95226 9.67176 3.95593 9.35225 4.13588 9.1723L6.30635 7.00184L4.13588 4.8277C3.95593 4.65142 3.95226 4.32824 4.13956 4.14094C4.32686 3.94997 4.65004 3.95731 4.82632 4.13726L7.00046 6.30773L9.17093 4.13726C9.35455 3.95364 9.67039 3.95364 9.85769 4.14094C10.0487 4.32824 10.045 4.64407 9.86136 4.8277L7.6909 7.00184L9.86136 9.1723C10.045 9.35593 10.045 9.66809 9.85769 9.85906C9.67039 10.0464 9.35455 10.0464 9.17093 9.86274L7.00046 7.69227L4.82632 9.86641C4.65004 10.0427 4.33053 10.0464 4.13956 9.85906Z" fill="white" fill-opacity="0.3"/>
</g>
</svg>
